<svg xmlns="http://www.w3.org/2000/svg" width="66" height="65" viewBox="0 0 66 65"><g fill="none"><path fill="#FEFEFE" d="M32.64.077C14.64.077 0 14.64 0 32.54 0 50.437 14.642 65 32.64 65c17.997 0 32.64-14.562 32.64-32.46C65.28 14.64 50.636.076 32.64.076"/><path fill="#4FC143" d="M32.64 1.734c-17.08 0-30.973 13.82-30.973 30.805 0 16.983 13.894 30.802 30.972 30.802 17.078 0 30.972-13.819 30.972-30.803 0-16.987-13.894-30.806-30.973-30.806"/><path fill="#FEFEFE" d="M17.478 20.2c-.594-.526-1.306-1.19-2.532-1.19-2.554 0-2.554 2.59-2.554 3.037v6.38c0 1.383.304 3.008 2.62 3.008 1.423 0 2.062-.736 2.466-1.18v1.865c0 .73-.15 1.43-1.138 1.43-.548 0-.83-.236-.977-.514-.116-.29-.116-.59-.116-.755H12.46c.02 1.114.04 3.293 3.745 3.293 4.082 0 4.082-2.634 4.082-3.855V19.246h-2.81v.955zm-2.295 2.368c0-.387 0-1.436 1.138-1.436 1.124 0 1.124.962 1.124 1.474v5.326c0 .608-.137 1.358-1.156 1.358-1.105 0-1.105-.954-1.105-1.34v-5.382zm6.62-3.322h2.813l-.024 1.522c.475-.843 1.11-1.786 2.774-1.736v2.77c-.223-.06-.504-.186-.956-.186-1.818 0-1.818 1.652-1.818 2.592v7.08h-2.79V19.247m8.96 6.632h4.827v-3.433c0-.703-.146-1.693-.828-2.4-.728-.698-1.823-1.063-2.93-1.063-.858 0-1.848.216-2.557.71-.78.54-1.297 1.384-1.297 2.89v5.087c0 2.43 1.11 3.86 3.873 3.86 1.755 0 3.695-.634 3.695-3.246v-.965h-2.75c0 1.24-.017 1.388-.236 1.665-.163.216-.428.35-.754.35-1.044 0-1.044-.96-1.044-1.485v-1.972zm.03-3.462c0-.743.304-1.2 1.04-1.2.962 0 .962.878.962 1.2v1.487h-2v-1.487zm8.747 3.462h4.826v-3.433c0-.703-.148-1.693-.833-2.4-.728-.698-1.814-1.063-2.933-1.063-.844 0-1.837.216-2.546.71-.78.54-1.302 1.384-1.302 2.89v5.087c0 2.43 1.113 3.86 3.878 3.86 1.745 0 3.69-.634 3.69-3.246v-.965H41.57c0 1.24-.023 1.388-.238 1.665-.16.216-.42.35-.76.35-1.035 0-1.035-.96-1.035-1.485v-1.972zm.025-3.462c0-.743.308-1.2 1.035-1.2.972 0 .972.878.972 1.2v1.487h-2.007v-1.487zm6.1-3.17h2.86l-.042.89c.564-.543 1.186-1.125 2.435-1.125.868 0 1.54.337 1.943.798.563.638.563 1.347.563 2.074v9.407h-2.77v-8.845c0-.66-.042-1.47-.984-1.47-1.187 0-1.187 1.094-1.187 1.63v8.684h-2.817V19.245m-10.52 18.617c-.595-.526-1.35-1.228-2.453-1.228-.67 0-1.78.353-2.3 1.415-.238.47-.333.944-.333 1.783v5.507c0 1.18.046 1.978.36 2.562.353.67 1.225 1.274 2.364 1.274 1.348 0 1.887-.774 2.34-1.416l-.026 1.18h2.838V32.31h-2.79v5.555zm-2.295 2.464c0-.583 0-1.53 1.093-1.53 1.18 0 1.18 1.016 1.18 1.39v5.175c0 .386 0 1.46-1.18 1.46-1.092 0-1.092-.77-1.092-1.37v-5.125zm6.46 5.207c0 .895 0 3.643 3.688 3.643 2.502 0 3.875-1.205 3.875-3.37v-5.784c0-.966-.157-2.005-1.18-2.712-.704-.463-1.703-.658-2.556-.658-3.332 0-3.828 2.03-3.828 3.487v5.394zm2.818-5.65c0-.57 0-1.486 1.01-1.486.852 0 .95.777.95 1.46v6.123c0 .45 0 1.27-.996 1.27-.964 0-.964-.938-.964-1.25v-6.117zm6.738-7.343h2.814v4.348h1.743v1.862H51.66v6.873c0 .783.134 1.32 1.272 1.32.188 0 .304-.027.49-.027v2c-.186.04-.534.15-1.484.15-2.652 0-3.05-.992-3.05-2.523V38.75H47.35v-1.862h1.516V32.54m4.698 1.2h.282c.14 0 .232-.018.287-.06a.193.193 0 0 0 .072-.162c0-.04-.01-.08-.035-.107a.156.156 0 0 0-.1-.08.622.622 0 0 0-.24-.033h-.266v.442zm-.24.822v-1.456h.5c.178 0 .303.018.377.044.08.02.136.07.183.14.046.062.07.132.07.21a.402.402 0 0 1-.117.28c-.067.084-.177.124-.303.133a.49.49 0 0 1 .12.076c.06.06.14.15.224.284l.174.288h-.28l-.133-.23c-.104-.183-.19-.3-.25-.337a.314.314 0 0 0-.19-.05h-.133v.617h-.24zm.597-1.882c-.196 0-.374.05-.562.153a1.041 1.041 0 0 0-.43.412 1.146 1.146 0 0 0 0 1.13c.098.182.247.318.423.418.182.098.37.15.57.15a1.2 1.2 0 0 0 .568-.15c.172-.1.312-.236.42-.418.097-.176.15-.37.15-.57 0-.185-.053-.383-.15-.56a1.12 1.12 0 0 0-.425-.412 1.135 1.135 0 0 0-.562-.153zm0-.218c.228 0 .454.06.668.173.212.11.39.282.507.497.124.22.182.444.182.674 0 .244-.058.457-.182.674a1.24 1.24 0 0 1-.503.507 1.32 1.32 0 0 1-.67.175c-.24 0-.465-.052-.686-.175a1.26 1.26 0 0 1-.498-.507 1.364 1.364 0 0 1-.18-.674c0-.23.062-.454.184-.674.118-.215.284-.386.508-.497.222-.114.438-.173.67-.173z"/></g></svg>