<?xml version="1.0" encoding="utf-8"?>
<!-- Generator: Adobe Illustrator 22.0.1, SVG Export Plug-In . SVG Version: 6.00 Build 0)  -->
<svg version="1.1" id="Layer_1" xmlns="http://www.w3.org/2000/svg" xmlns:xlink="http://www.w3.org/1999/xlink" x="0px" y="0px"
	 viewBox="0 0 84.3 62.8" style="enable-background:new 0 0 84.3 62.8;" xml:space="preserve">
<style type="text/css">
	.st0{fill-rule:evenodd;clip-rule:evenodd;fill:#FFFFFF;}
	.st1{fill:#FFFFFF;}
</style>
<g>
	<g>
		<path class="st0" d="M20.2,30h11.5c10.4,0,17,6.4,17,16.3c0,11-7.3,16.4-19,16.4h-9.5V30L20.2,30z M31,37.5c-0.4,0-1,0.1-1.7,0.1
			v17.6c5.8,0,10.4-2.3,10.4-9.1C39.7,40.3,36,37.5,31,37.5L31,37.5z"/>
		<path class="st0" d="M84.3,39.5v-8.6c-2.3-1-4.4-1.5-7.3-1.5c-9.6,0-17.3,7.3-17.3,16.9c0,9.6,7.6,16.6,17.1,16.6
			c3.4,0,5.7-0.7,7.5-2.1v-8.6c-2.7,1.7-4.5,2.4-7,2.4c-4.8,0-8.6-3.5-8.6-8.7c0-5.1,3.8-8.8,8.6-8.8C79.9,37,81.8,37.9,84.3,39.5
			L84.3,39.5z"/>
		<path class="st0" d="M0.2,23.4V25h6.4v-1.5c-1.8-0.1-2.1-0.3-2.1-1.5v-7.8L8.2,25h1.6l4.1-10.9v7.6c0,1.6,0,1.6-2.3,1.7V25h7.4
			v-1.5c-2.1,0-2.2-0.2-2.2-1.4v-7.6c0-1.3,0.2-1.7,2.2-1.7v-1.6h-6.3l-3.2,8.8l-3-8.8H0.2v1.6c1.8,0,2.1,0,2.1,1.5v7.3
			C2.3,23.1,2.3,23.4,0.2,23.4L0.2,23.4z"/>
		<path class="st0" d="M31.1,23.4V25H37v-1.5c-1.4-0.1-1.4-0.2-1.4-2.2v-1.7c0-1.6,0.7-2.9,2.2-2.9c1.2,0,1.5,0.8,1.5,1.9V22
			c0,1.2-0.1,1.4-1.5,1.4V25h5.3v-1.5c-1.2,0-1.4-0.1-1.4-1.3v-2.4c0-1.7,0.8-3.1,2.3-3.1c1.2,0,1.4,0.7,1.4,2.1v3.6
			c0,1,0,1.1-1.4,1.1V25h5.8v-1.5c-1.8,0-1.9,0.1-1.9-1v-4c0-2.3-0.5-3.6-2.9-3.6c-1.4,0-2.3,0.5-3.4,1.7c-0.6-1.1-1.4-1.8-2.9-1.8
			c-1.5,0-2.5,0.8-3.3,1.9v-1.6h-4.5v1.4c1.8,0,2,0.1,2,1.5v3.3C33,23.4,33,23.4,31.1,23.4L31.1,23.4z"/>
		<polygon class="st0" points="0.5,30 0.5,62.7 9.5,62.7 9.5,50.2 18.3,50.2 18.3,42.6 9.6,42.6 9.5,37.5 18.9,37.5 18.9,30 0.5,30 
					"/>
		<path class="st0" d="M50.6,11.2h4.2v5.1c1.1-1,1.8-1.3,3-1.3c2.4,0,4,2.1,4,5.1c0,3.2-1.6,5.3-4.3,5.3c-1.3,0-2.1-0.4-3-1.4
			l-0.8,1.1h-1.3V14.4c0-1.6-0.1-1.8-1.7-1.8V11.2L50.6,11.2z M59,20c0-2.3-0.8-3.4-2-3.4c-1.5,0-2.2,1.3-2.2,3.6
			c0,2,0.8,3.4,2.1,3.4C58,23.6,59,22.5,59,20L59,20z"/>
		<path class="st0" d="M74.4,23.4V25h6.4v-1.5c-1.8,0-2,0.1-2-1.4v-2.1c0-2,0.7-3.8,2.4-3.8c0.1,0,0.2,0,0.6,0.1
			c-0.6,0.3-1,0.7-1,1.4c0,0.8,0.6,1.3,1.4,1.3c1,0,1.6-0.7,1.6-1.8c0-1.3-1-2.3-2.3-2.3c-1.1,0-1.8,0.5-2.8,1.6v-1.4h-4.4v1.4
			c1.5,0,2,0,2,1.3v4C76.4,23.3,76.4,23.4,74.4,23.4L74.4,23.4z"/>
		<path class="st0" d="M66.3,20.3c0,1.9,0.9,3.2,2.5,3.2c1.4,0,2.1-0.8,2.3-2.1h1.8c-0.3,2.5-2,3.9-4.3,3.9c-2.9,0-5-1.7-5-5.1
			c0-3,1.9-5.3,4.8-5.3c2.8,0,4.6,2.1,4.6,5.4H66.3L66.3,20.3z M68.4,16.4c-1.2,0-1.9,0.8-1.9,2.3h3.8
			C70.2,17.2,69.6,16.4,68.4,16.4L68.4,16.4z"/>
		<path class="st0" d="M23,20.3c0,1.9,1,3.2,2.6,3.2c1.4,0,2.1-0.8,2.3-2.1h1.7c-0.3,2.5-1.9,3.9-4.3,3.9c-2.9,0-5.1-1.7-5.1-5.1
			c0-3,2-5.3,4.8-5.3c2.8,0,4.5,2.1,4.5,5.4H23L23,20.3z M25.1,16.4c-1.2,0-1.9,0.8-1.9,2.3h3.7C26.9,17.2,26.3,16.4,25.1,16.4
			L25.1,16.4z"/>
		<polygon class="st0" points="49.6,62.7 58.6,62.7 58.6,30 49.6,30 49.6,62.7 		"/>
	</g>
	<g>
		<path class="st1" d="M0,4.1C0,1.6,1.9,0,4.3,0c1.8,0,2.8,0.9,3.4,1.9L6,2.8c-0.3-0.5-0.9-1-1.7-1c-1.3,0-2.2,1-2.2,2.3
			c0,1.3,0.9,2.3,2.2,2.3c0.6,0,1.2-0.2,1.5-0.5V5.3H4V3.5h3.8v3.2C7,7.6,5.8,8.2,4.3,8.2C1.9,8.2,0,6.6,0,4.1z"/>
		<path class="st1" d="M8.7,8.1V2.3h1.8V3c0.4-0.5,1.1-0.9,1.8-0.9v1.8c-0.1,0-0.3,0-0.5,0c-0.5,0-1.1,0.2-1.3,0.5v3.7H8.7z"/>
		<path class="st1" d="M12.5,5.2c0-1.7,1.3-3,3.1-3c1.7,0,2.9,1.3,2.9,3.2v0.4h-4.1c0.1,0.5,0.6,1,1.4,1c0.4,0,1.1-0.2,1.4-0.5
			l0.8,1.1c-0.6,0.5-1.5,0.8-2.4,0.8C13.9,8.2,12.5,7.1,12.5,5.2z M15.6,3.6c-0.8,0-1.1,0.6-1.2,1h2.4C16.7,4.2,16.4,3.6,15.6,3.6z"
			/>
		<path class="st1" d="M18.8,5.2c0-1.7,1.3-3,3.1-3c1.7,0,2.9,1.3,2.9,3.2v0.4h-4.1c0.1,0.5,0.6,1,1.4,1c0.4,0,1.1-0.2,1.4-0.5
			l0.8,1.1c-0.6,0.5-1.5,0.8-2.4,0.8C20.1,8.2,18.8,7.1,18.8,5.2z M21.8,3.6c-0.8,0-1.1,0.6-1.2,1H23C23,4.2,22.7,3.6,21.8,3.6z"/>
		<path class="st1" d="M29.3,8.1V4.8c0-0.7-0.4-1-0.9-1c-0.5,0-0.9,0.3-1.1,0.6v3.7h-1.8V2.3h1.8V3c0.3-0.4,1-0.8,2-0.8
			c1.3,0,1.9,0.8,1.9,1.8v4.1H29.3z"/>
		<path class="st1" d="M35,8.1V0.1h3.3c2.5,0,4.3,1.5,4.3,4s-1.8,4-4.3,4H35z M40.5,4.1c0-1.2-0.7-2.2-2.2-2.2h-1.3v4.4h1.3
			C39.7,6.3,40.5,5.3,40.5,4.1z"/>
		<path class="st1" d="M43,5.2c0-1.6,1.2-3,3.1-3c2,0,3.1,1.4,3.1,3c0,1.6-1.2,3-3.1,3C44.1,8.2,43,6.8,43,5.2z M47.4,5.2
			c0-0.8-0.5-1.4-1.3-1.4c-0.8,0-1.2,0.6-1.2,1.4c0,0.8,0.4,1.4,1.2,1.4C46.9,6.6,47.4,6,47.4,5.2z"/>
		<path class="st1" d="M50.3,6.5V3.9h-1V2.3h1V0.8h1.8v1.6h1.2v1.6h-1.2V6c0,0.3,0.2,0.6,0.5,0.6c0.2,0,0.4-0.1,0.5-0.1l0.4,1.4
			c-0.2,0.2-0.7,0.4-1.4,0.4C50.9,8.2,50.3,7.6,50.3,6.5z"/>
		<path class="st1" d="M56.8,8.1V0.1h4.5c1.6,0,2.3,1,2.3,2c0,1-0.6,1.7-1.4,1.8c0.8,0.1,1.5,0.9,1.5,1.9c0,1.2-0.8,2.2-2.3,2.2
			H56.8z M61.5,2.5c0-0.4-0.3-0.7-0.7-0.7h-2v1.3h2C61.2,3.2,61.5,2.9,61.5,2.5z M61.7,5.6c0-0.4-0.3-0.7-0.8-0.7h-2.1v1.4h2.1
			C61.4,6.4,61.7,6.1,61.7,5.6z"/>
		<path class="st1" d="M67.9,8.1V7.5c-0.4,0.4-1,0.7-1.8,0.7c-0.9,0-2-0.6-2-1.9c0-1.4,1.1-1.8,2-1.8c0.8,0,1.4,0.2,1.8,0.7V4.5
			c0-0.5-0.4-0.8-1.2-0.8c-0.6,0-1.2,0.2-1.6,0.6l-0.7-1.2c0.7-0.6,1.7-0.9,2.6-0.9c1.4,0,2.7,0.5,2.7,2.3v3.6H67.9z M67.9,6.6V6.1
			c-0.2-0.3-0.6-0.4-1-0.4c-0.5,0-0.9,0.2-0.9,0.7C66,6.8,66.4,7,66.9,7C67.3,7,67.7,6.9,67.9,6.6z"/>
		<path class="st1" d="M74.7,8.1V4.8c0-0.7-0.4-1-0.9-1c-0.5,0-0.9,0.3-1.1,0.6v3.7h-1.8V2.3h1.8V3c0.3-0.4,1-0.8,2-0.8
			c1.3,0,1.9,0.8,1.9,1.8v4.1H74.7z"/>
		<path class="st1" d="M81.3,8.1L80,6l-0.5,0.7v1.4h-1.8V0.1h1.8v4.5l1.8-2.3h2.2l-2.1,2.6l2.2,3.1H81.3z"/>
	</g>
</g>
</svg>
